<svg aria-hidden="true" style="position:absolute;width:0;height:0;overflow:hidden" xmlns="http://www.w3.org/2000/svg">
  <defs>
   <symbol id="cross" viewBox="0 0 32 32">
<path d="M23.734 10.304l-1.504-1.504-5.963 5.962-5.962-5.962-1.504 1.504 5.962 5.962-5.962 5.963 1.504 1.504 5.962-5.963 5.963 5.963 1.504-1.504-5.963-5.963 5.963-5.962z"></path>
</symbol>
<symbol id="menu" viewBox="0 0 32 32">
<path d="M6.4 11.734v-2.134h19.2v2.134h-19.2zM6.4 17.066h19.2v-2.133h-19.2v2.133zM6.4 22.4h19.2v-2.134h-19.2v2.134z"></path>
</symbol>
    <symbol id="icon-Logo" viewBox="0 0 39 32">
      <path d="m22.371 9.64-.749-.571a.57.57 0 0 0-.8.08l-10.36 11.897.16.177 2.566-2.366a.397.397 0 0 1-.239-.444.394.394 0 0 1 .394-.316.392.392 0 0 1 .372.274l3.383-3.137a.295.295 0 0 1 .366 0l.171.126a.285.285 0 0 0 .383-.045l4.423-4.96a.47.47 0 0 0 .067-.564.473.473 0 0 0-.136-.149z"/>
      <path d="M27.24 12.989a23.103 23.103 0 0 1-7.497 3.514 40.623 40.623 0 0 1-8.154 1.211c.055.406.155.804.297 1.189 1.554 1.406 13.257-.994 15.543-3.771.486-.577-.189-2.143-.189-2.143zm-13.897 5.868a.387.387 0 0 1-.381-.464.39.39 0 0 1 .305-.305c.075-.015.153-.007.225.022s.132.079.174.143a.395.395 0 0 1-.046.493.375.375 0 0 1-.277.112zM2.286 12.166l.091-.394 1.486.337c.123.226.198.475.223.731.028.271.011.546-.051.811a2.143 2.143 0 0 1-.491.994c-.236.267-.54.464-.88.571-.35.108-.723.122-1.08.04a1.998 1.998 0 0 1-.954-.503 1.894 1.894 0 0 1-.543-.897 2.153 2.153 0 0 1 0-1.143c.061-.28.172-.547.326-.789.146-.22.342-.402.571-.531l.206.314a1.634 1.634 0 0 0-.754 1.108c-.071.296-.065.604.017.897.077.278.229.529.44.726.217.21.488.354.783.417.286.08.588.08.874 0 .274-.09.52-.25.714-.463.2-.23.337-.507.4-.806a1.75 1.75 0 0 0-.069-1.091l-1.309-.331zM5.52 8.571l-1.331 1.777.571 1.023-.263.354-2.114-3.857.246-.337 4.303.926-.269.354-1.143-.24zm-.377-.091-2.286-.514L4 10.017 5.143 8.48zM5.143 4.886l.343-.257 2.177 2.914L9.457 6.2l.217.291-2.131 1.594-2.4-3.2zM8.743 2.503l.383-.171 1.509 3.303 2.04-.926.149.331-2.423 1.103-1.657-3.64zM16.274 3.817l.086.36-2.754.646-.914-3.897 2.674-.623.08.354-2.286.531.326 1.383 2.011-.474.086.354-2.017.469.343 1.446 2.366-.549zM20.2 3.96l-.954-1.257a2.847 2.847 0 0 1-.32 0l-1.074.034.04 1.269h-.423l-.131-4L18.858 0a1.8 1.8 0 0 1 1.211.326 1.257 1.257 0 0 1 .469.994c.017.282-.057.563-.211.8a1.329 1.329 0 0 1-.663.486l1 1.337-.463.017zm-.4-1.88a.915.915 0 0 0 .291-.748.929.929 0 0 0-.337-.732 1.385 1.385 0 0 0-.897-.234l-1.086.04.069 2 1.063-.034c.324.012.642-.091.897-.291zM23.223 2.897l-.206 1.366L22.6 4.2l.211-1.343L21.628 0l.446.069 1.011 2.434L24.799.486l.4.086-1.977 2.326zM28.874 2.657l.497.646-.217.171-.497-.663-.314.749-.24-.103.32-.749-.823.109v-.274l.811-.091-.503-.646.223-.171.44.651.309-.754.246.103-.291.766.823-.114v.28l-.783.091zM30.783 7.263a1.588 1.588 0 0 1-.246-.691l.337-.149c.025.226.099.445.217.64.128.219.294.412.491.571.204.195.464.321.743.36a.623.623 0 0 0 .537-.223.509.509 0 0 0 .131-.389 1.064 1.064 0 0 0-.137-.394 6.03 6.03 0 0 0-.349-.509 5.034 5.034 0 0 1-.411-.629 1.152 1.152 0 0 1-.149-.537c0-.212.079-.416.223-.571.124-.151.289-.264.474-.326.207-.06.427-.06.634 0 .267.087.514.227.726.411.176.146.332.315.463.503.121.174.212.367.269.571l-.326.171a2.04 2.04 0 0 0-.251-.537 2.014 2.014 0 0 0-.383-.394 1.272 1.272 0 0 0-.737-.349.61.61 0 0 0-.537.234.493.493 0 0 0-.131.389c.013.144.06.283.137.406.08.131.194.303.349.509.153.195.291.401.411.617.095.164.148.348.154.537a.838.838 0 0 1-.223.571 1.02 1.02 0 0 1-.48.326 1.104 1.104 0 0 1-.634 0 2.123 2.123 0 0 1-.731-.411 2.591 2.591 0 0 1-.571-.709zM36.531 8.097l-.806-1.143.297-.211 1.857 2.651-.297.211-.806-1.143-2.983 2.086-.24-.349 2.977-2.103zM35.251 12.794c.102-.345.3-.655.571-.891.265-.238.589-.401.937-.474a2.06 2.06 0 0 1 1.074.04c.336.111.638.308.874.571.246.283.414.626.486.994a2.17 2.17 0 0 1 0 1.103 1.962 1.962 0 0 1-.571.891 2.122 2.122 0 0 1-2.04.445 1.916 1.916 0 0 1-.874-.571 2.155 2.155 0 0 1-.486-.989 2.192 2.192 0 0 1 .029-1.12zM36 14.611c.191.217.438.377.714.463a1.765 1.765 0 0 0 1.657-.366c.211-.194.367-.441.451-.714a1.845 1.845 0 0 0-.371-1.68 1.635 1.635 0 0 0-.737-.463 1.705 1.705 0 0 0-.88 0c-.291.056-.56.192-.777.394a1.591 1.591 0 0 0-.451.72c-.078.29-.078.596 0 .886.063.284.199.546.394.76zM34.817 19.428l1.48-.571c0-.103.034-.206.063-.314l.28-1.034-1.211-.314.109-.406 3.863 1.034-.389 1.446a1.815 1.815 0 0 1-.663 1.063 1.245 1.245 0 0 1-1.086.16 1.238 1.238 0 0 1-.977-1.206l-1.577.571.109-.429zm1.914.16a1.028 1.028 0 0 0 1.434.383c.252-.203.424-.488.486-.806l.274-1.029-1.937-.52-.274 1.029c-.105.306-.099.64.017.943zM32.766 23.109l-.291-.223 1.714-2.257 3.189 2.417-1.657 2.189-.291-.223 1.4-1.846-1.143-.863-1.251 1.651-.286-.217 1.28-1.651-1.183-.897-1.48 1.92zM31.429 27.663l-.817.046v-.274l.817-.006-.44-.68.223-.143.434.686.354-.766.246.131-.389.72.817-.046v.28h-.829l.44.68-.223.143-.434-.686-.377.743-.24-.137.417-.691zM24 27.206l.691.383a1.78 1.78 0 0 1 1.143-.903c.227-.071.466-.096.703-.074.206.016.403.087.571.206a.908.908 0 0 1 .32.457c.069.226.057.468-.034.686a2.857 2.857 0 0 1-.571.794c.188.101.363.226.52.371a.983.983 0 0 1 .234.394.761.761 0 0 1-.149.669c-.153.22-.38.376-.64.44a.996.996 0 0 1-.709 0 .721.721 0 0 1-.412-.485.773.773 0 0 1 .04-.571c.131-.26.303-.497.509-.703l-1.377-.766a2.7 2.7 0 0 0-.034.817h-.349a2.738 2.738 0 0 1 .114-.994l-.72-.4.149-.32zm.994.571 1.514.84c.198-.189.363-.412.486-.657a.723.723 0 0 0 0-.514.618.618 0 0 0-.4-.429 1.143 1.143 0 0 0-.731 0 1.377 1.377 0 0 0-.891.743l.023.017zm2.149 2.286a.524.524 0 0 0 .046-.422.7.7 0 0 0-.183-.297 2.452 2.452 0 0 0-.474-.314 2.962 2.962 0 0 0-.451.571.576.576 0 0 0-.046.423.482.482 0 0 0 .251.302.637.637 0 0 0 .451 0 .68.68 0 0 0 .383-.269l.023.006zM17.034 31.611l.08-4h.406l-.063 3.2 1.623-2.663h.2l1.52 2.709.057-3.183h.406l-.074 4h-.349l-1.68-2.989-1.777 2.931-.349-.006zM15.046 27.429a1.953 1.953 0 0 1 .52 1.977 2.027 2.027 0 0 1-.543.931 1.92 1.92 0 0 1-.92.503 2.217 2.217 0 0 1-1.109-.034 2.155 2.155 0 0 1-.96-.52 1.92 1.92 0 0 1-.531-.903 2.111 2.111 0 0 1 .572-2.012c.25-.249.561-.427.903-.514a2.205 2.205 0 0 1 1.103.034c.363.092.696.277.966.537zm-1.949-.2c-.28.065-.535.208-.737.411a1.65 1.65 0 0 0-.434.76c-.08.286-.08.588 0 .874.067.278.212.532.417.731.215.21.481.362.771.44.291.074.595.074.886 0a1.63 1.63 0 0 0 .743-.411c.209-.21.359-.473.434-.76.08-.288.08-.592 0-.88a1.598 1.598 0 0 0-.423-.731 1.71 1.71 0 0 0-.777-.434 1.643 1.643 0 0 0-.88 0zM8.771 24.571l.154 1.571c.098.042.193.09.286.143l.931.537.629-1.109.371.211-2 3.446-1.303-.749a1.813 1.813 0 0 1-.857-.914 1.255 1.255 0 0 1 .126-1.086c.133-.25.343-.451.6-.571.261-.108.549-.13.823-.063l-.166-1.68.406.263zm-.651 1.806a1.036 1.036 0 0 0-.642.486 1.021 1.021 0 0 0-.095.8c.134.296.366.536.657.68l.92.531 1-1.714-.92-.531a1.413 1.413 0 0 0-.92-.28v.029zM5.389 21.892l.257-.257 1.971 2.029-2.857 2.789-1.903-1.966.263-.257 1.617 1.663.977-.989-1.417-1.474.274-.263 1.446 1.486 1.063-1.034-1.691-1.726zM1.143 19.646l.137-.789.269.04-.154.811.76-.28.091.251-.771.263.634.537-.183.206-.611-.571-.143.811-.274-.051.16-.811-.766.274-.086-.223.766-.269-.634-.531.189-.206.617.537z"/>
    </symbol>
    <symbol id="icon-check" viewBox="0 0 28 32">
      <path d="M27.413 6.588a1.996 1.996 0 0 1 0 2.825l-16 16a1.996 1.996 0 0 1-2.825 0l-8.002-8c-.781-.781-.781-2.044 0-2.825a2 2 0 0 1 2.829 0l6.529 6.581L24.588 6.588a1.994 1.994 0 0 1 2.825 0z"/>
    </symbol>
    <symbol id="icon-circle-attention" viewBox="0 0 32 32">
      <path d="M16 0C7.162 0 0 7.162 0 16s7.162 16 16 16 16-7.163 16-16S24.837 0 16 0zm-1.5 9.5c0-.825.675-1.5 1.5-1.5s1.5.672 1.5 1.5v8a1.5 1.5 0 0 1-3 0v-8zM16 25a1.965 1.965 0 1 1 0-3.93A1.965 1.965 0 0 1 16 25z"/>
    </symbol>
    <symbol id="icon-circle-check" viewBox="0 0 32 32">
      <path d="M0 16C0 7.162 7.162 0 16 0s16 7.162 16 16c0 8.837-7.163 16-16 16S0 24.837 0 16zm23.238-2.762c.681-.681.681-1.794 0-2.475s-1.794-.681-2.475 0l-6.762 6.763-2.762-2.762c-.681-.681-1.794-.681-2.475 0s-.681 1.794 0 2.475l4 4a1.755 1.755 0 0 0 2.475 0l8-8z"/>
    </symbol>
    <symbol id="icon-circle-user" viewBox="0 0 32 32">
      <path d="M16 0C7.162 0 0 7.162 0 16s7.162 16 16 16 16-7.163 16-16S24.837 0 16 0zm0 8a4.5 4.5 0 1 1 0 9 4.5 4.5 0 0 1 0-9zm0 20a11.97 11.97 0 0 1-8.481-3.518C8.531 21.869 11.031 20 14 20h4c2.971 0 5.471 1.867 6.481 4.482A11.965 11.965 0 0 1 16 28z"/>
    </symbol>
    <symbol id="icon-envelopes-bulk" viewBox="0 0 40 32">
      <path d="M11.994 28.038c-.61 0-1.217-.186-1.736-.556L2 21.263v8.738c0 1.101.899 2 2 2h16c1.101 0 2-.899 2-2v-8.738l-8.238 6.206a3.027 3.027 0 0 1-1.769.569zM12 12c0-2.203 1.797-4 4-4h14V2c0-1.101-.899-2-2-2H8C6.9 0 6 .899 6 2v12h6v-2zm8 4H4c-1.101 0-2 .9-2 2v.761l9.438 7.113a.994.994 0 0 0 1.142-.016l9.421-7.096V18c0-1.1-.9-2-2-2zm16-6H16c-1.1 0-2 .9-2 2v2h6a4.004 4.004 0 0 1 3.984 3.617L24 26h12c1.101 0 2-.899 2-2V12c0-1.1-.9-2-2-2zm-2 8h-4v-4h4v4z"/>
    </symbol>
    <symbol id="icon-icon-lock" viewBox="0 0 28 32">
      <path d="M5 12V9a9 9 0 0 1 18 0v3h1c2.206 0 4 1.794 4 4v12c0 2.206-1.794 4-4 4H4c-2.209 0-4-1.794-4-4V16c0-2.206 1.791-4 4-4h1zm4 0h10V9A5 5 0 1 0 9 9v3z"/>
    </symbol>
    <symbol id="icon-icon-unlock" viewBox="0 0 28 32">
      <path d="M9 12h15c2.206 0 4 1.794 4 4v12c0 2.206-1.794 4-4 4H4c-2.209 0-4-1.794-4-4V16c0-2.206 1.791-4 4-4h1V9a9 9 0 0 1 17.131-3.858c.475.997.05 2.189-1 2.664-1 .475-2.137.05-2.613-.95A5 5 0 0 0 8.999 9v3z"/>
    </symbol>
    <symbol id="icon-mastercard-brands" viewBox="0 0 36 32">
      <path d="M30.181 25.644c0 .425-.288.731-.7.731-.425 0-.7-.325-.7-.731s.275-.731.7-.731c.413 0 .7.325.7.731zm-19.425-.731c-.444 0-.7.325-.7.731s.256.731.7.731c.406 0 .681-.306.681-.731-.006-.406-.275-.731-.681-.731zm7.344-.019c-.337 0-.544.219-.594.544H18.7c-.056-.356-.275-.544-.6-.544zm6.737.019c-.425 0-.681.325-.681.731s.256.731.681.731c.425 0 .7-.306.7-.731 0-.406-.275-.731-.7-.731zm6.619 1.631c0 .019.019.031.019.069 0 .019-.019.031-.019.069-.019.019-.019.031-.031.05-.019.019-.031.031-.069.031-.019.019-.031.019-.069.019-.019 0-.031 0-.069-.019-.019 0-.031-.019-.05-.031-.019-.019-.031-.031-.031-.05-.019-.031-.019-.05-.019-.069 0-.031 0-.05.019-.069 0-.031.019-.05.031-.069.019-.019.031-.019.05-.031.031-.019.05-.019.069-.019.031 0 .05 0 .069.019.031.019.05.019.069.031s.012.038.031.069zm-.137.087c.031 0 .031-.019.05-.019.019-.019.019-.031.019-.05s0-.031-.019-.05c-.019 0-.031-.019-.069-.019h-.1v.219h.05v-.087h.019l.069.087h.05l-.069-.081zM36 5.063v22c0 1.656-1.344 3-3 3H3c-1.656 0-3-1.344-3-3v-22c0-1.656 1.344-3 3-3h30c1.656 0 3 1.344 3 3zM4 13.787c0 4.781 3.881 8.656 8.656 8.656 1.7 0 3.369-.512 4.781-1.444-4.556-3.706-4.525-10.7 0-14.406a8.66 8.66 0 0 0-4.781-1.444C7.881 5.143 4 9.024 4 13.786zm14 6.8c4.406-3.438 4.387-10.137 0-13.594-4.387 3.456-4.406 10.163 0 13.594zm-8.894 4.769c0-.544-.356-.9-.919-.919-.287 0-.594.087-.8.406-.15-.256-.406-.406-.763-.406a.792.792 0 0 0-.662.337v-.275h-.513v2.294h.513c0-1.181-.156-1.887.563-1.887.638 0 .513.637.513 1.887h.494c0-1.144-.156-1.887.562-1.887.637 0 .512.625.512 1.887h.512v-1.438zm2.806-.856h-.494v.275a.901.901 0 0 0-.731-.337c-.644 0-1.137.512-1.137 1.206 0 .7.494 1.206 1.137 1.206.325 0 .563-.119.731-.337v.288h.494v-2.3zm2.532 1.6c0-.938-1.431-.512-1.431-.95 0-.356.744-.3 1.156-.069l.206-.406c-.588-.381-1.887-.375-1.887.512 0 .894 1.431.519 1.431.938 0 .394-.844.363-1.294.05l-.219.394c.7.475 2.037.375 2.037-.469zm2.212.581-.137-.425c-.238.131-.762.275-.762-.256v-1.038h.819V24.5h-.819v-.7h-.512v.7h-.475v.456h.475V26c0 1.1 1.081.9 1.412.681zm.832-.837h1.719c0-1.012-.462-1.413-1.087-1.413-.663 0-1.137.494-1.137 1.206 0 1.281 1.413 1.494 2.113.887l-.238-.375c-.488.4-1.225.363-1.369-.306zm3.693-1.344c-.288-.125-.725-.113-.95.275V24.5h-.512v2.294h.512V25.5c0-.725.594-.631.8-.525l.15-.475zm.663 1.144c0-.712.725-.944 1.294-.525l.238-.406c-.725-.569-2.044-.256-2.044.938 0 1.238 1.4 1.488 2.044.938l-.238-.406c-.575.406-1.294.163-1.294-.538zm4.168-1.144H25.5v.275c-.519-.688-1.869-.3-1.869.869 0 1.2 1.4 1.544 1.869.869v.288h.512v-2.3zm2.107 0c-.15-.075-.688-.181-.95.275V24.5h-.494v2.294h.494V25.5c0-.688.563-.644.8-.525l.15-.475zm2.518-.931h-.494v1.206c-.512-.681-1.869-.319-1.869.869 0 1.212 1.406 1.538 1.869.869v.288h.494V23.57zm.476-4.694v.288h.05v-.288h.119v-.05h-.288v.05h.119zm.412 7.738c0-.031 0-.069-.019-.1-.019-.019-.031-.05-.05-.069s-.05-.031-.069-.05c-.031 0-.069-.019-.1-.019-.019 0-.05.019-.087.019a.343.343 0 0 0-.069.05c-.031.019-.05.05-.05.069-.019.031-.019.069-.019.1 0 .019 0 .05.019.087 0 .019.019.05.05.069a.215.215 0 0 0 .069.05.167.167 0 0 0 .087.019c.031 0 .069 0 .1-.019.019-.019.05-.031.069-.05s.031-.05.05-.069c.019-.038.019-.069.019-.087zm.2-7.794h-.087l-.1.219-.1-.219h-.087v.337h.05V18.9l.1.219h.069l.087-.219v.256h.069v-.337zM32 13.787c0-4.763-3.881-8.644-8.656-8.644-1.7 0-3.369.513-4.781 1.444 4.506 3.706 4.575 10.719 0 14.406a8.692 8.692 0 0 0 4.781 1.444c4.775.006 8.656-3.869 8.656-8.65z"/>
    </symbol>
    <symbol id="icon-mobile-button" viewBox="0 0 24 32">
      <path d="M20 0H4a3 3 0 0 0-3 3v26a3 3 0 0 0 3 3h16a3 3 0 0 0 3-3V3a3 3 0 0 0-3-3zm-8 29c-1.109 0-2-.891-2-2s.891-2 2-2 2 .891 2 2-.887 2-2 2z"/>
    </symbol>
    <symbol id="icon-visa-brands" viewBox="0 0 36 32">
      <path d="M29.381 14.456s.475 2.325.581 2.813h-2.087c.206-.556 1-2.719 1-2.719-.012.019.206-.569.331-.931l.175.838zM36 5v22c0 1.656-1.344 3-3 3H3c-1.656 0-3-1.344-3-3V5c0-1.656 1.344-3 3-3h30c1.656 0 3 1.344 3 3zM9.531 20.7l3.95-9.7h-2.656l-2.456 6.625-.269-1.344-.875-4.463c-.144-.619-.588-.794-1.138-.819H2.043l-.044.194c.988.25 1.869.613 2.638 1.069L6.874 20.7H9.53zm5.9.012 1.575-9.713h-2.512l-1.569 9.713h2.506zm8.744-3.174c.012-1.106-.663-1.95-2.106-2.644-.881-.444-1.419-.744-1.419-1.2.012-.412.456-.838 1.444-.838a4.3 4.3 0 0 1 1.869.369l.225.106.344-2.1a6.238 6.238 0 0 0-2.25-.412c-2.481 0-4.225 1.325-4.238 3.213-.019 1.394 1.25 2.169 2.2 2.638.969.475 1.3.788 1.3 1.206-.012.65-.788.95-1.506.95-1 0-1.538-.156-2.356-.519l-.331-.156-.35 2.181c.587.269 1.675.506 2.8.519 2.637.006 4.356-1.3 4.375-3.313zM33 20.712l-2.025-9.713h-1.944c-.6 0-1.056.175-1.313.806l-3.731 8.906h2.637s.431-1.2.525-1.456h3.225c.075.344.3 1.456.3 1.456h2.325z"/>
    </symbol>
    <symbol id="icon-facebook" viewBox="0 0 32 32">
      <path d="M21.329 5.313h2.921V.225C23.746.156 22.013 0 19.994 0c-4.212 0-7.097 2.649-7.097 7.519V12H8.249v5.688h4.648V32h5.699V17.689h4.46l.708-5.688h-5.169V8.082c.001-1.644.444-2.769 2.735-2.769z"/>
    </symbol>
    <symbol id="icon-close" viewBox="0 0 32 32">
      <path d="m26.667 7.303-1.97-1.97-7.808 7.808-7.808-7.808-1.97 1.97 7.808 7.808-7.808 7.808 1.97 1.97 7.808-7.808 7.808 7.808 1.97-1.97-7.808-7.808 7.808-7.808z"/>
    </symbol>
    <symbol id="icon-instagram" viewBox="0 0 32 32">
      <path d="M31.969 9.408c-.075-1.7-.35-2.869-.744-3.882a7.803 7.803 0 0 0-1.85-2.838A7.867 7.867 0 0 0 26.543.844C25.524.45 24.361.175 22.661.1 20.948.019 20.404 0 16.06 0s-4.888.019-6.595.094c-1.7.075-2.869.35-3.882.744a7.803 7.803 0 0 0-2.838 1.85A7.867 7.867 0 0 0 .901 5.52C.507 6.539.232 7.702.157 9.402c-.081 1.713-.1 2.257-.1 6.601s.019 4.888.094 6.595c.075 1.7.35 2.869.744 3.882a7.895 7.895 0 0 0 1.85 2.838 7.867 7.867 0 0 0 2.832 1.844c1.019.394 2.182.669 3.882.744 1.706.075 2.25.094 6.595.094s4.888-.019 6.595-.094c1.7-.075 2.869-.35 3.882-.744a8.184 8.184 0 0 0 4.682-4.682c.394-1.019.669-2.182.744-3.882.075-1.707.094-2.251.094-6.595s-.006-4.888-.081-6.595zm-2.882 13.065c-.069 1.563-.331 2.407-.55 2.969a5.31 5.31 0 0 1-3.038 3.038c-.563.219-1.413.481-2.969.55-1.688.075-2.194.094-6.464.094s-4.782-.019-6.464-.094c-1.563-.069-2.407-.331-2.969-.55a4.926 4.926 0 0 1-1.838-1.194 4.974 4.974 0 0 1-1.194-1.838c-.219-.563-.481-1.413-.55-2.969-.075-1.688-.094-2.194-.094-6.464s.019-4.782.094-6.464c.069-1.563.331-2.407.55-2.969a4.868 4.868 0 0 1 1.2-1.838A4.974 4.974 0 0 1 6.639 3.55c.563-.219 1.413-.481 2.969-.55 1.688-.075 2.194-.094 6.464-.094 4.276 0 4.782.019 6.464.094 1.563.069 2.407.331 2.969.55a4.914 4.914 0 0 1 1.838 1.194 4.974 4.974 0 0 1 1.194 1.838c.219.563.481 1.413.55 2.969.075 1.688.094 2.194.094 6.464s-.019 4.77-.094 6.458z"/>
      <path d="M16.059 7.783c-4.538 0-8.22 3.682-8.22 8.22s3.682 8.22 8.22 8.22c4.539 0 8.22-3.682 8.22-8.22s-3.682-8.22-8.22-8.22zm0 13.552a5.333 5.333 0 0 1 0-10.664 5.333 5.333 0 0 1 0 10.664zM26.524 7.458a1.919 1.919 0 1 1-3.838 0 1.919 1.919 0 0 1 3.838 0z"/>
    </symbol>
    <symbol id="icon-linkedin" viewBox="0 0 32 32">
      <path d="M31.992 32v-.001H32V20.263c0-5.741-1.236-10.164-7.948-10.164-3.227 0-5.392 1.771-6.276 3.449h-.093v-2.913h-6.364v21.364h6.627V21.42c0-2.785.528-5.479 3.977-5.479 3.399 0 3.449 3.179 3.449 5.657v10.401h6.62zM.528 10.636h6.635V32H.528V10.636zM3.843 0C1.722 0 0 1.721 0 3.843s1.721 3.879 3.843 3.879c2.121 0 3.843-1.757 3.843-3.879A3.846 3.846 0 0 0 3.843 0z"/>
    </symbol>
    <symbol id="icon-mail" viewBox="0 0 32 32">
      <path stroke-linejoin="round" stroke-linecap="round" stroke-width="1.333" d="M6.4 6.667h19.2c1.32 0 2.4 1.05 2.4 2.333v14c0 1.283-1.08 2.333-2.4 2.333H6.4C5.08 25.333 4 24.283 4 23V9c0-1.283 1.08-2.333 2.4-2.333z"/>
      <path stroke-linejoin="round" stroke-linecap="round" stroke-width="1.333" d="m26.667 9.333-10.667 8-10.667-8"/>
    </symbol>
    <symbol id="icon-map-pin" viewBox="0 0 32 32">
      <path stroke-linejoin="round" stroke-linecap="round" stroke-width="1.333" d="M26.667 13.818C26.667 21.454 16 28 16 28S5.333 21.455 5.333 13.818C5.333 8.396 10.109 4 16 4s10.667 4.396 10.667 9.818z"/>
      <path stroke-linejoin="round" stroke-linecap="round" stroke-width="1.333" d="M16 18.667a4 4 0 1 0 0-8 4 4 0 0 0 0 8z"/>
    </symbol>
    <symbol id="icon-phone" viewBox="0 0 32 32">
      <path stroke-linejoin="round" stroke-linecap="round" stroke-width="1.333" d="M26.666 21.337v3.218a2.146 2.146 0 0 1-2.338 2.145 21.239 21.239 0 0 1-9.257-3.293 20.914 20.914 0 0 1-6.436-6.436 21.221 21.221 0 0 1-3.293-9.3 2.144 2.144 0 0 1 2.134-2.338h3.218a2.144 2.144 0 0 1 2.145 1.845c.136 1.03.388 2.041.751 3.014a2.144 2.144 0 0 1-.483 2.263l-1.362 1.362a17.162 17.162 0 0 0 6.436 6.436l1.362-1.362a2.146 2.146 0 0 1 2.263-.483c.973.363 1.984.615 3.014.751a2.144 2.144 0 0 1 1.845 2.177z"/>
    </symbol>
    <symbol id="icon-twitter" viewBox="0 0 32 32">
      <path d="M32 6.078c-1.19.522-2.458.868-3.78 1.036a6.523 6.523 0 0 0 2.886-3.626 13.11 13.11 0 0 1-4.16 1.588A6.574 6.574 0 0 0 22.154 3c-3.632 0-6.556 2.948-6.556 6.562 0 .52.044 1.02.152 1.496-5.454-.266-10.28-2.88-13.522-6.862a6.605 6.605 0 0 0-.898 3.316 6.57 6.57 0 0 0 2.914 5.452 6.479 6.479 0 0 1-2.964-.808v.072c0 3.188 2.274 5.836 5.256 6.446a6.548 6.548 0 0 1-1.72.216 5.8 5.8 0 0 1-1.242-.112c.85 2.598 3.262 4.508 6.13 4.57a13.182 13.182 0 0 1-8.134 2.798c-.538 0-1.054-.024-1.57-.09A18.469 18.469 0 0 0 10.064 29c12.072 0 18.672-10 18.672-18.668 0-.29-.01-.57-.024-.848A13.087 13.087 0 0 0 32 6.078z"/>
    </symbol>
  </defs>
</svg>
